<svg width="16" height="17" viewBox="0 0 16 17" fill="none" xmlns="http://www.w3.org/2000/svg">
<path d="M8 4.98537C7.30381 4.98537 6.62325 5.19182 6.04439 5.5786C5.46553 5.96538 5.01436 6.51513 4.74794 7.15833C4.48152 7.80152 4.41182 8.50928 4.54764 9.19209C4.68346 9.8749 5.0187 10.5021 5.51098 10.9944C6.00326 11.4867 6.63047 11.8219 7.31328 11.9577C7.99609 12.0936 8.70385 12.0238 9.34705 11.7574C9.99024 11.491 10.54 11.0398 10.9268 10.461C11.3136 9.88212 11.52 9.20156 11.52 8.50537C11.5189 7.57213 11.1477 6.67742 10.4878 6.01752C9.82795 5.35763 8.93324 4.98643 8 4.98537ZM8 11.3854C7.43039 11.3854 6.87357 11.2165 6.39996 10.9C5.92634 10.5835 5.55721 10.1337 5.33923 9.6075C5.12125 9.08125 5.06421 8.50218 5.17534 7.94351C5.28646 7.38485 5.56076 6.87168 5.96353 6.4689C6.36631 6.06613 6.87947 5.79183 7.43814 5.68071C7.9968 5.56958 8.57588 5.62662 9.10213 5.8446C9.62838 6.06258 10.0782 6.43172 10.3946 6.90533C10.7111 7.37894 10.88 7.93576 10.88 8.50537C10.88 9.26919 10.5766 10.0017 10.0365 10.5418C9.49636 11.0819 8.76382 11.3854 8 11.3854ZM11.84 0.505371H4.16C3.05709 0.506641 1.99971 0.945334 1.21984 1.72521C0.439963 2.50509 0.00127039 3.56246 0 4.66537V12.3454C0.00127039 13.4483 0.439963 14.5057 1.21984 15.2855C1.99971 16.0654 3.05709 16.5041 4.16 16.5054H11.84C12.9429 16.5041 14.0003 16.0654 14.7802 15.2855C15.56 14.5057 15.9987 13.4483 16 12.3454V4.66537C15.9987 3.56246 15.56 2.50509 14.7802 1.72521C14.0003 0.945334 12.9429 0.506641 11.84 0.505371ZM15.36 12.3454C15.3589 13.2786 14.9877 14.1733 14.3278 14.8332C13.6679 15.4931 12.7732 15.8643 11.84 15.8654H4.16C3.22676 15.8643 2.33205 15.4931 1.67215 14.8332C1.01225 14.1733 0.641059 13.2786 0.64 12.3454V4.66537C0.641059 3.73213 1.01225 2.83742 1.67215 2.17752C2.33205 1.51763 3.22676 1.14643 4.16 1.14537H11.84C12.7732 1.14643 13.6679 1.51763 14.3278 2.17752C14.9877 2.83742 15.3589 3.73213 15.36 4.66537V12.3454ZM12.8 4.34537C12.8 4.47195 12.7625 4.59569 12.6921 4.70094C12.6218 4.80618 12.5219 4.88821 12.4049 4.93665C12.288 4.98509 12.1593 4.99777 12.0351 4.97307C11.911 4.94838 11.797 4.88742 11.7075 4.79792C11.6179 4.70841 11.557 4.59438 11.5323 4.47023C11.5076 4.34608 11.5203 4.2174 11.5687 4.10045C11.6172 3.98351 11.6992 3.88355 11.8044 3.81323C11.9097 3.74291 12.0334 3.70537 12.16 3.70537C12.3297 3.70537 12.4925 3.7728 12.6125 3.89282C12.7326 4.01285 12.8 4.17563 12.8 4.34537Z" fill="black"/>
</svg>
