<svg width="200" height="67" viewBox="0 0 200 67" fill="none" xmlns="http://www.w3.org/2000/svg">
<path d="M85.7422 22.2479L78.5596 5.96826H80.4132L87.1324 21.2944H86.1129L92.8785 5.96826H94.6163L87.4336 22.2479H85.7422Z" fill="black"/>
<path d="M93.8774 22.2479L101.292 5.96826H102.983L110.397 22.2479H108.59L101.778 6.9683H102.473L95.6615 22.2479H93.8774ZM96.7968 17.8989L97.3065 16.5035H106.737L107.246 17.8989H96.7968Z" fill="black"/>
<path d="M113.08 22.2479V5.96826H114.795V20.7595H123.878V22.2479H113.08Z" fill="black"/>
<path d="M128.254 13.2476H136.826V14.7128H128.254V13.2476ZM128.439 20.7595H138.194V22.2479H126.724V5.96826H137.846V7.45669H128.439V20.7595Z" fill="black"/>
<path d="M142.224 22.2479V5.96826H148.294C149.669 5.96826 150.851 6.19308 151.839 6.6427C152.828 7.07683 153.585 7.71251 154.11 8.54975C154.651 9.37148 154.921 10.3715 154.921 11.5499C154.921 12.6972 154.651 13.6895 154.11 14.5267C153.585 15.3484 152.828 15.9841 151.839 16.4337C150.851 16.8679 149.669 17.0849 148.294 17.0849H143.174L143.938 16.2942V22.2479H142.224ZM153.299 22.2479L149.128 16.3407H150.982L155.176 22.2479H153.299ZM143.938 16.4337L143.174 15.6198H148.248C149.87 15.6198 151.098 15.2632 151.932 14.55C152.782 13.8368 153.206 12.8367 153.206 11.5499C153.206 10.2475 152.782 9.23969 151.932 8.52649C151.098 7.81329 149.87 7.45669 148.248 7.45669H143.174L143.938 6.6427V16.4337Z" fill="black"/>
<path d="M158.968 22.2479V5.96826H160.682V22.2479H158.968Z" fill="black"/>
<path d="M165.959 22.2479V5.96826H167.674V22.2479H165.959Z" fill="black"/>
<path d="M170.356 22.2479L177.77 5.96826H179.462L186.876 22.2479H185.069L178.257 6.9683H178.952L172.14 22.2479H170.356ZM173.275 17.8989L173.785 16.5035H183.215L183.725 17.8989H173.275Z" fill="black"/>
<path d="M88.2214 48.5511C87.0011 48.5511 85.8658 48.3496 84.8154 47.9465C83.7805 47.5278 82.8769 46.9464 82.1046 46.2022C81.3477 45.4425 80.753 44.5665 80.3205 43.5742C79.9034 42.5664 79.6949 41.4656 79.6949 40.2718C79.6949 39.0779 79.9034 37.9849 80.3205 36.9926C80.753 35.9848 81.3477 35.1088 82.1046 34.3646C82.8769 33.6049 83.7805 33.0235 84.8154 32.6204C85.8503 32.2017 86.9857 31.9924 88.2214 31.9924C89.4417 31.9924 90.5693 32.2017 91.6042 32.6204C92.6391 33.0235 93.535 33.5971 94.2919 34.3413C95.0642 35.0856 95.6589 35.9616 96.076 36.9693C96.5085 37.9771 96.7247 39.0779 96.7247 40.2718C96.7247 41.4656 96.5085 42.5664 96.076 43.5742C95.6589 44.582 95.0642 45.458 94.2919 46.2022C93.535 46.9464 92.6391 47.5278 91.6042 47.9465C90.5693 48.3496 89.4417 48.5511 88.2214 48.5511ZM88.2214 47.0162C89.1945 47.0162 90.0904 46.8534 90.9091 46.5278C91.7432 46.1867 92.4615 45.7138 93.0639 45.1092C93.6818 44.489 94.1606 43.7758 94.5004 42.9695C94.8403 42.1478 95.0102 41.2486 95.0102 40.2718C95.0102 39.295 94.8403 38.4035 94.5004 37.5973C94.1606 36.7755 93.6818 36.0623 93.0639 35.4577C92.4615 34.8375 91.7432 34.3646 90.9091 34.039C90.0904 33.6979 89.1945 33.5274 88.2214 33.5274C87.2483 33.5274 86.3446 33.6979 85.5105 34.039C84.6764 34.3646 83.9504 34.8375 83.3326 35.4577C82.7301 36.0623 82.2513 36.7755 81.896 37.5973C81.5562 38.4035 81.3863 39.295 81.3863 40.2718C81.3863 41.2331 81.5562 42.1246 81.896 42.9463C82.2513 43.768 82.7301 44.489 83.3326 45.1092C83.9504 45.7138 84.6764 46.1867 85.5105 46.5278C86.3446 46.8534 87.2483 47.0162 88.2214 47.0162Z" fill="black"/>
<path d="M105.04 48.5511C103.835 48.5511 102.676 48.3573 101.564 47.9697C100.467 47.5666 99.6179 47.055 99.0155 46.4348L99.6874 45.1092C100.259 45.6673 101.024 46.1402 101.981 46.5278C102.954 46.8999 103.974 47.086 105.04 47.086C106.059 47.086 106.885 46.9619 107.519 46.7139C108.168 46.4503 108.639 46.1014 108.932 45.6673C109.241 45.2332 109.396 44.7526 109.396 44.2254C109.396 43.5897 109.21 43.0781 108.839 42.6905C108.484 42.3029 108.013 42.0005 107.426 41.7835C106.839 41.5509 106.19 41.3493 105.48 41.1788C104.769 41.0082 104.059 40.8299 103.348 40.6439C102.638 40.4423 101.981 40.1788 101.379 39.8532C100.792 39.5276 100.313 39.1012 99.9423 38.574C99.587 38.0314 99.4094 37.3259 99.4094 36.4577C99.4094 35.6515 99.6179 34.915 100.035 34.2483C100.467 33.5661 101.124 33.0235 102.004 32.6204C102.885 32.2017 104.012 31.9924 105.387 31.9924C106.299 31.9924 107.202 32.1242 108.098 32.3878C108.994 32.6359 109.766 32.9847 110.415 33.4343L109.836 34.8065C109.141 34.3413 108.399 34.0002 107.611 33.7832C106.839 33.5661 106.09 33.4576 105.364 33.4576C104.391 33.4576 103.588 33.5894 102.954 33.853C102.321 34.1165 101.85 34.4731 101.541 34.9228C101.248 35.3569 101.101 35.853 101.101 36.4112C101.101 37.0469 101.278 37.5585 101.634 37.9461C102.004 38.3337 102.483 38.6361 103.07 38.8531C103.673 39.0702 104.329 39.264 105.04 39.4345C105.75 39.6051 106.453 39.7911 107.148 39.9927C107.859 40.1943 108.507 40.4578 109.094 40.7834C109.697 41.0935 110.176 41.5121 110.531 42.0393C110.902 42.5664 111.087 43.2564 111.087 44.1091C111.087 44.8998 110.871 45.6363 110.438 46.3185C110.006 46.9852 109.341 47.5278 108.446 47.9465C107.565 48.3496 106.43 48.5511 105.04 48.5511Z" fill="black"/>
<path d="M112.228 48.4116L119.642 32.132H121.333L128.748 48.4116H126.941L120.129 33.132H120.824L114.012 48.4116H112.228ZM115.147 44.0626L115.657 42.6672H125.087L125.597 44.0626H115.147Z" fill="black"/>
<path d="M131.431 48.4116V32.132H138.034C139.764 32.132 141.278 32.4808 142.576 33.1785C143.888 33.8607 144.908 34.8142 145.634 36.0391C146.36 37.2639 146.723 38.6748 146.723 40.2718C146.723 41.8687 146.36 43.2796 145.634 44.5045C144.908 45.7293 143.888 46.6906 142.576 47.3883C141.278 48.0705 139.764 48.4116 138.034 48.4116H131.431ZM133.145 46.9232H137.942C139.378 46.9232 140.622 46.6441 141.672 46.0859C142.738 45.5123 143.564 44.7293 144.151 43.737C144.738 42.7292 145.032 41.5742 145.032 40.2718C145.032 38.9539 144.738 37.7988 144.151 36.8065C143.564 35.8143 142.738 35.039 141.672 34.4809C140.622 33.9072 139.378 33.6204 137.942 33.6204H133.145V46.9232Z" fill="black"/>
<path d="M157.617 48.5511C156.396 48.5511 155.269 48.3496 154.234 47.9465C153.199 47.5278 152.303 46.9464 151.546 46.2022C150.789 45.458 150.195 44.582 149.762 43.5742C149.345 42.5664 149.137 41.4656 149.137 40.2718C149.137 39.0779 149.345 37.9771 149.762 36.9693C150.195 35.9616 150.789 35.0856 151.546 34.3413C152.319 33.5971 153.222 33.0235 154.257 32.6204C155.292 32.2017 156.42 31.9924 157.64 31.9924C158.814 31.9924 159.918 32.194 160.953 32.5971C161.988 32.9847 162.861 33.5739 163.571 34.3646L162.482 35.4577C161.818 34.7755 161.084 34.2871 160.281 33.9925C159.478 33.6824 158.613 33.5274 157.686 33.5274C156.713 33.5274 155.809 33.6979 154.975 34.039C154.141 34.3646 153.415 34.8375 152.797 35.4577C152.18 36.0623 151.693 36.7755 151.338 37.5973C150.998 38.4035 150.828 39.295 150.828 40.2718C150.828 41.2486 150.998 42.1478 151.338 42.9695C151.693 43.7758 152.18 44.489 152.797 45.1092C153.415 45.7138 154.141 46.1867 154.975 46.5278C155.809 46.8534 156.713 47.0162 157.686 47.0162C158.613 47.0162 159.478 46.8612 160.281 46.5511C161.084 46.241 161.818 45.7448 162.482 45.0626L163.571 46.1557C162.861 46.9464 161.988 47.5434 160.953 47.9465C159.918 48.3496 158.806 48.5511 157.617 48.5511Z" fill="black"/>
<path d="M179.089 32.132H180.781V48.4116H179.089V32.132ZM168.941 48.4116H167.226V32.132H168.941V48.4116ZM179.252 40.8997H168.756V39.388H179.252V40.8997Z" fill="black"/>
<path d="M183.48 48.4116L190.894 32.132H192.585L200 48.4116H198.192L191.38 33.132H192.076L185.264 48.4116H183.48ZM186.399 44.0626L186.909 42.6672H196.339L196.849 44.0626H186.399Z" fill="black"/>
<path d="M37.4958 55.8073C37.0786 54.5865 36.6652 53.3617 36.2443 52.1409C36.2067 52.0365 36.2142 51.8758 36.0488 51.8718C35.6354 51.8718 35.4475 52.1409 35.5903 52.5425C35.6279 52.6509 35.6617 52.7553 35.6993 52.8637C37.1124 57.004 38.5218 61.1443 39.9349 65.2846C39.9725 65.389 39.9988 65.5817 40.0702 65.5697C40.2769 65.5376 40.4874 65.4653 40.6677 65.3568C40.8106 65.2725 40.6677 65.1239 40.6339 65.0235C39.5929 61.9474 38.5443 58.8754 37.4958 55.8033V55.8073Z" fill="black"/>
<path d="M61.489 40.4795C57.2648 39.6842 53.0405 38.893 48.8199 38.0816C48.3802 37.9973 48.5193 38.3347 48.4479 38.5275C48.3502 38.7805 48.4742 38.8448 48.6922 38.8849C50.3796 39.1942 52.0671 39.5155 53.7545 39.8328C56.3139 40.3148 58.8733 40.7968 61.4327 41.2827C61.598 41.3149 61.6807 41.2827 61.6957 41.094C61.7033 40.9815 61.7296 40.8691 61.7446 40.7968C61.8198 40.4995 61.6469 40.5076 61.4928 40.4795H61.489Z" fill="black"/>
<path d="M43.6069 19.7096C43.7347 19.8823 43.9226 20.0108 44.073 20.1473C44.2007 20.1152 44.2421 20.0188 44.3022 19.9425C47.057 16.4327 49.8118 12.9229 52.5704 9.41714C52.7057 9.24848 52.7884 9.11596 52.5591 8.98343C52.3825 8.87902 52.281 8.52162 51.9879 8.8991C49.2519 12.4089 46.497 15.9026 43.7535 19.4044C43.6859 19.4887 43.5167 19.5851 43.6069 19.7096Z" fill="black"/>
<path d="M48.0065 56.9156C45.9658 54.3174 43.9213 51.7232 41.8919 49.1209C41.5949 48.7435 41.516 49.1651 41.3507 49.2414C41.1477 49.3378 41.1703 49.4663 41.3131 49.643C41.8956 50.3578 42.4593 51.0927 43.0306 51.8195C45.2217 54.6105 47.4127 57.4015 49.6076 60.1925C49.6714 60.2768 49.7241 60.4696 49.8706 60.3531C50.036 60.2206 50.2239 60.1041 50.3367 59.8993C50.2615 59.7989 50.1938 59.7066 50.1262 59.6222C49.4196 58.7227 48.7093 57.8191 48.0028 56.9196L48.0065 56.9156Z" fill="black"/>
<path d="M62.2704 29.3033C62.2291 29.0101 62.1539 28.9097 61.842 28.9739C59.2413 29.484 56.633 29.966 54.0286 30.46C52.4125 30.7653 50.7965 31.0705 49.1766 31.3717C49.0489 31.3958 48.9361 31.4119 48.9699 31.5565C48.985 31.6609 49 31.7252 49.0038 31.7854C49.0188 32.1108 49.1203 32.2112 49.4623 32.1389C51.0032 31.8216 52.5553 31.5444 54.1 31.2553C56.727 30.7612 59.354 30.2552 61.9886 29.7812C62.3193 29.721 62.3118 29.5804 62.2704 29.3073V29.3033Z" fill="black"/>
<path d="M57.3811 51.1291C53.6981 48.8481 50.0112 46.5792 46.3281 44.2982C46.1139 44.1657 45.9823 44.1095 45.847 44.4066C45.7305 44.6636 45.6216 44.8002 45.956 45.005C49.6504 47.2618 53.3335 49.5428 57.0166 51.8198C57.088 51.8639 57.1594 51.9081 57.2496 51.9603C57.4526 51.8479 57.5052 51.615 57.5991 51.4262C57.7119 51.2054 57.4751 51.1893 57.3774 51.1291H57.3811Z" fill="black"/>
<path d="M47.389 25.3636C47.5055 25.5483 47.5469 25.7772 47.8513 25.5724C48.4902 25.1387 49.1592 24.7532 49.8131 24.3516C52.8648 22.4682 55.9203 20.5848 58.972 18.6974C59.0584 18.6452 59.1787 18.6251 59.2125 18.4805C59.1561 18.3761 59.0847 18.2757 59.0396 18.1593C58.9344 17.8781 58.7991 17.8621 58.5699 18.0267C58.2466 18.2596 57.8971 18.4484 57.5589 18.6572C54.199 20.7294 50.8391 22.8095 47.4717 24.8696C47.2049 25.0343 47.2613 25.1628 47.389 25.3676V25.3636Z" fill="black"/>
<path d="M38.4507 15.9706C38.6198 16.0791 38.8152 16.1755 39.0069 16.1915C39.176 16.2076 39.1648 15.9706 39.2061 15.8421C40.6605 11.5854 42.1112 7.32465 43.5619 3.06792C43.5845 2.99563 43.6108 2.92736 43.6446 2.83098C43.5619 2.58602 43.3064 2.62618 43.1335 2.53382C42.9305 2.42539 42.9268 2.63823 42.8892 2.75067C42.3781 4.24454 41.8707 5.73842 41.3596 7.23229C40.4012 10.0433 39.4429 12.8544 38.4883 15.6654C38.4544 15.7618 38.3417 15.8984 38.4507 15.9706Z" fill="black"/>
<path d="M26.0571 14.7904C26.1887 15.1799 26.3503 15.0073 26.557 14.955C26.8088 14.8868 26.8539 14.7784 26.7599 14.5053C25.8805 11.9553 25.0123 9.40121 24.1442 6.84717C23.5541 5.11235 22.9678 3.37753 22.3703 1.64672C22.3364 1.54231 22.3477 1.38168 22.1861 1.36561C21.8591 1.34152 21.5885 1.6427 21.6863 1.92782C23.1482 6.21267 24.6139 10.4975 26.0609 14.7904H26.0571Z" fill="black"/>
<path d="M23.1202 51.0327C21.6545 55.3135 20.2038 59.5983 18.7343 63.8751C18.6403 64.1442 18.6742 64.2607 18.9335 64.3249C19.1327 64.3731 19.3018 64.5618 19.4333 64.1683C20.8803 59.8674 22.3497 55.5785 23.8155 51.2856C23.838 51.2134 23.8643 51.1451 23.9019 51.0286C23.7704 50.8519 23.5486 50.8319 23.3607 50.7596C23.1315 50.6712 23.1578 50.9242 23.1202 51.0367V51.0327Z" fill="black"/>
<path d="M13.109 35.5716C13.2555 35.5435 13.4096 35.5234 13.3119 35.2945C13.2367 35.1178 13.372 34.8085 13.0939 34.7764C12.9962 34.7924 12.9511 34.8005 12.9023 34.8085C10.2489 35.3106 7.59183 35.8086 4.9385 36.3106C3.37883 36.6038 1.81915 36.9011 0.259471 37.2023C0.157998 37.2224 0.0151838 37.1702 0.00390903 37.379C-0.026157 37.8891 0.112899 38.0257 0.571406 37.9373C3.46902 37.3871 6.3704 36.8448 9.26802 36.2946C10.5496 36.0536 11.8274 35.8086 13.109 35.5676V35.5716Z" fill="black"/>
<path d="M14.7618 10.6055C16.6409 12.9989 18.5201 15.3963 20.403 17.7857C20.4668 17.866 20.5157 18.0668 20.666 17.9504C20.8314 17.8178 21.0156 17.6974 21.1283 17.4926C21.0719 17.4203 21.0306 17.36 20.9817 17.3038C18.2194 13.786 15.4496 10.2722 12.6985 6.74631C12.4354 6.40898 12.349 6.70615 12.1836 6.80655C11.9694 6.93907 11.9619 7.05553 12.131 7.26836C13.018 8.37271 13.8861 9.49311 14.7618 10.6055Z" fill="black"/>
<path d="M18.5165 47.053C18.3286 46.9285 18.2384 46.6916 17.9716 47.0289C15.2393 50.5427 12.4883 54.0365 9.74098 57.5342C9.67709 57.6146 9.52676 57.6949 9.61695 57.8073C9.74849 57.98 9.92889 58.1085 10.1018 58.2691C10.1807 58.1808 10.2483 58.1125 10.3085 58.0362C13.0558 54.5385 15.7993 51.0367 18.5503 47.5389C18.7119 47.3341 18.7646 47.2096 18.5165 47.049V47.053Z" fill="black"/>
<path d="M0.931857 26.4841C5.09977 27.2714 9.26768 28.0546 13.4318 28.8458C13.6724 28.89 13.7926 28.8538 13.834 28.5606C13.8941 28.1188 13.9054 28.1228 13.4431 28.0345C10.1133 27.4079 6.78347 26.7814 3.45741 26.1548C2.58549 25.9901 1.70982 25.8295 0.883 25.6728C0.766494 25.6608 0.702604 25.6447 0.649988 25.725C0.443284 26.0544 0.574823 26.4159 0.931857 26.4841Z" fill="black"/>
<path d="M4.91896 15.8179C8.60581 18.0747 12.2814 20.3517 15.9607 22.6166C16.066 22.6809 16.1862 22.8616 16.2952 22.7491C16.438 22.6086 16.5132 22.3957 16.6184 22.211C16.5884 22.0383 16.438 22.0142 16.3366 21.95C12.6497 19.669 8.95909 17.4001 5.27599 15.1111C4.97909 14.9264 4.93399 15.1031 4.81749 15.2998C4.68595 15.5207 4.64085 15.6492 4.91896 15.8179Z" fill="black"/>
<path d="M14.8225 42.0653C14.9089 42.0131 15.0292 41.993 15.0555 41.8445C14.9578 41.6637 14.8713 41.467 14.7473 41.2983C14.6646 41.1859 14.5782 41.3184 14.5068 41.3626C10.7861 43.6556 7.06918 45.9566 3.34098 48.2376C2.98019 48.4585 3.21696 48.6191 3.29589 48.8319C3.40488 49.1211 3.54017 49.0327 3.72809 48.9163C5.96049 47.5348 8.1929 46.1574 10.4291 44.78C11.8948 43.8765 13.3605 42.9729 14.8225 42.0653Z" fill="black"/>
<path d="M45.6738 22.2675C45.7978 22.4442 45.9406 22.6088 46.0797 22.7815C46.1811 22.6891 46.2563 22.6249 46.3277 22.5606C49.2817 19.9102 52.2357 17.2598 55.1972 14.6174C55.3926 14.4447 55.4152 14.3323 55.231 14.1476C55.0769 13.995 55.0243 13.7058 54.7049 13.999C51.7434 16.6775 48.7631 19.34 45.794 22.0065C45.7226 22.0707 45.5723 22.1189 45.6738 22.2675Z" fill="black"/>
<path d="M36.241 14.5492C36.9024 10.5454 37.5564 6.54169 38.2291 2.54196C38.2855 2.21266 38.199 2.1203 37.9096 2.04802C37.4737 1.93557 37.5188 2.25684 37.4774 2.50582C36.9325 5.78672 36.3913 9.06762 35.8501 12.3485C35.7223 13.1316 35.5945 13.9147 35.4592 14.762C35.448 14.8142 35.478 14.8865 35.5908 14.9307C36.0305 15.1114 36.162 15.0391 36.2447 14.5492H36.241Z" fill="black"/>
<path d="M48.5976 28.0427C48.5037 28.0788 48.2894 28.0587 48.3909 28.2917C48.4736 28.4845 48.4736 28.7295 48.6615 28.862C48.7367 28.8299 48.7931 28.8058 48.8457 28.7857C52.4123 27.4 55.9751 26.0063 59.5454 24.6287C59.925 24.4841 59.6732 24.2913 59.6394 24.1066C59.5981 23.8776 59.5266 23.7732 59.2598 23.8816C57.734 24.4921 56.1968 25.0785 54.6635 25.677C52.6415 26.4642 50.6196 27.2474 48.6014 28.0387L48.5976 28.0427Z" fill="black"/>
<path d="M29.2994 14.4125C29.4948 14.4205 29.709 14.3884 29.8819 14.296C30.0022 14.2318 29.9082 14.043 29.8857 13.9105C29.4234 11.0995 28.9574 8.29243 28.4951 5.48137C28.2997 4.30073 28.1118 3.12009 27.9126 1.93945C27.8938 1.81496 27.9051 1.63425 27.6984 1.67441C27.2286 1.66637 27.1421 1.77078 27.2173 2.23662C27.627 4.73444 28.0328 7.23627 28.4463 9.73409C28.6868 11.1878 28.9236 12.6415 29.1716 14.0952C29.1904 14.2077 29.1566 14.4045 29.2994 14.4125Z" fill="black"/>
<path d="M41.4303 17.7776C41.6333 17.894 41.7573 17.9944 41.9227 17.6852C43.8018 14.1794 45.6997 10.6817 47.5901 7.17989C47.6314 7.10359 47.669 7.02729 47.7179 6.93492C47.5751 6.7502 47.3759 6.66586 47.1917 6.56949C47.0264 6.48114 47.0113 6.68594 46.9625 6.77831C45.0683 10.2761 43.1817 13.7778 41.28 17.2716C41.1221 17.5647 41.2199 17.649 41.4341 17.7735L41.4303 17.7776Z" fill="black"/>
<path d="M35.0604 64.5255C34.414 60.594 33.7638 56.6626 33.1212 52.7311C33.0497 52.2894 32.7979 52.5865 32.6363 52.5745C32.4635 52.5624 32.3357 52.6066 32.3845 52.8877C32.7453 55 33.0836 57.1163 33.4331 59.2327C33.73 61.0237 34.0344 62.8147 34.3163 64.6058C34.3576 64.8748 34.4365 64.9552 34.6771 64.8668C34.7748 64.8307 34.8838 64.8226 34.989 64.7985C35.0717 64.7785 35.1093 64.7303 35.083 64.6339C35.0755 64.5978 35.0642 64.5616 35.0604 64.5215V64.5255Z" fill="black"/>
<path d="M42.7469 57.4778C41.5781 55.3092 40.4093 53.1447 39.2367 50.9802C39.1765 50.8678 39.1465 50.7152 38.9924 50.667C38.8233 50.7754 38.6241 50.8597 38.4888 51.0083C38.3685 51.1449 38.5414 51.2814 38.6053 51.4019C40.428 54.7872 42.2583 58.1645 44.0773 61.5498C44.2051 61.7907 44.3103 61.8108 44.502 61.6542C44.6711 61.5136 44.9455 61.4976 44.7275 61.1201C44.0473 59.9234 43.4046 58.6986 42.7469 57.4818V57.4778Z" fill="black"/>
<path d="M48.6914 50.8598C47.2069 49.5265 45.7186 48.1933 44.2341 46.864C44.1777 46.8118 44.1176 46.6874 44.0349 46.7717C43.8921 46.9203 43.7305 47.0769 43.6591 47.2656C43.5914 47.4463 43.8132 47.5186 43.9222 47.619C46.6732 50.0927 49.428 52.5625 52.1866 55.0281C52.2617 55.0964 52.3331 55.2892 52.4684 55.1607C52.6225 55.0121 52.7428 54.8233 52.8894 54.6386C52.7766 54.5302 52.6827 54.4378 52.5849 54.3495C51.2883 53.1889 49.9917 52.0243 48.6989 50.8638L48.6914 50.8598Z" fill="black"/>
<path d="M26.3265 51.9482C26.101 51.9081 26.1198 52.0928 26.0935 52.2333C25.4659 56.0403 24.8458 59.8473 24.2069 63.6542C24.1618 63.9233 24.2369 64.0076 24.4549 64.0116C24.6428 64.0116 24.8758 64.2245 24.9473 63.7948C25.5523 60.036 26.1762 56.2772 26.7926 52.5225C26.8715 52.0285 26.8038 51.9522 26.3265 51.9482Z" fill="black"/>
<path d="M57.6365 45.1299C54.3744 43.8567 51.1122 42.5915 47.85 41.3143C47.5832 41.2098 47.493 41.2661 47.3953 41.5392C47.2863 41.8485 47.2938 42.0292 47.6358 42.0894C47.726 42.1055 47.8125 42.1577 47.9027 42.1898C51.0897 43.4269 54.2729 44.668 57.4599 45.901C57.5576 45.9372 57.6816 46.0898 57.7718 45.9452C57.8733 45.7805 57.9147 45.5717 57.9936 45.3669C57.9522 45.1741 57.7643 45.1821 57.6403 45.1339L57.6365 45.1299Z" fill="black"/>
<path d="M21.1183 49.346C20.968 49.2095 20.7876 49.077 20.6035 49.0288C20.4456 48.9886 20.4155 49.2215 20.3517 49.342C18.5928 52.5868 16.8339 55.8395 15.0863 59.0883C15.03 59.1927 14.8608 59.3212 14.9849 59.4457C15.1277 59.5863 15.3231 59.6706 15.4922 59.775C15.635 59.7268 15.6613 59.5903 15.7177 59.4859C16.5295 57.988 17.3375 56.4901 18.1493 54.9922C19.1114 53.2092 20.0773 51.4262 21.0357 49.6392C21.0845 49.5508 21.216 49.4384 21.1183 49.35V49.346Z" fill="black"/>
<path d="M4.60075 21.7937C7.8742 23.0468 11.1364 24.3241 14.406 25.5852C14.5301 25.6334 14.6954 25.8543 14.8232 25.5933C14.9021 25.4406 14.9397 25.2639 14.9999 25.0912C14.951 24.8904 14.7631 24.9024 14.6353 24.8502C11.3807 23.577 8.126 22.3199 4.8751 21.0386C4.57069 20.9181 4.51055 21.0507 4.43539 21.2917C4.36398 21.5166 4.2813 21.6692 4.60451 21.7937H4.60075Z" fill="black"/>
<path d="M13.4015 38.166C11.3983 38.9733 9.38388 39.7405 7.37321 40.5237C6.17432 40.9896 4.97168 41.4555 3.77279 41.9254C3.67508 41.9656 3.49844 41.9776 3.57737 42.1624C3.65629 42.3592 3.65629 42.6042 3.83668 42.7367C3.91937 42.7046 3.97574 42.6845 4.03211 42.6604C7.24167 41.4113 10.4512 40.1582 13.6645 38.9171C13.89 38.8287 13.9802 38.7444 13.86 38.4914C13.7622 38.2865 13.7886 38.0134 13.4015 38.166Z" fill="black"/>
<path d="M16.694 44.7518C16.5437 44.5671 16.4234 44.3703 16.2618 44.2338C16.1415 44.1334 16.0626 44.3181 15.9799 44.3904C15.2057 45.0771 14.4353 45.7678 13.6648 46.4586C11.8534 48.0809 10.0456 49.7113 8.22288 51.3257C7.96731 51.5546 8.11389 51.6751 8.25294 51.8237C8.36569 51.9401 8.41079 52.2092 8.67763 51.9682C11.2859 49.611 13.9054 47.2657 16.5249 44.9165C16.5775 44.8683 16.6263 44.8201 16.694 44.7518Z" fill="black"/>
<path d="M19.9041 10.0955C20.9715 12.0753 22.0426 14.0551 23.1137 16.0349C23.1625 16.1273 23.1813 16.324 23.3542 16.2357C23.5384 16.1393 23.7075 16.0148 23.8879 15.8984C23.8353 15.802 23.809 15.7458 23.7789 15.6936C22.1027 12.5893 20.419 9.48514 18.7504 6.3729C18.5399 5.97935 18.3971 6.31668 18.2242 6.3729C17.9987 6.4492 17.9912 6.57369 18.1114 6.78653C18.7203 7.88284 19.3103 8.9912 19.9079 10.0955H19.9041Z" fill="black"/>
<path d="M10.6281 13.3926C13.0822 15.6013 15.5439 17.802 17.9943 20.0147C18.2122 20.2115 18.3137 20.1673 18.4565 19.9544C18.5843 19.7617 18.7609 19.6492 18.4753 19.3963C15.9986 17.1996 13.5332 14.9829 11.0678 12.7702C11.0152 12.722 10.9588 12.6738 10.8724 12.5935C10.7371 12.7662 10.5867 12.9268 10.474 13.1115C10.3725 13.2722 10.5491 13.3204 10.6281 13.3926Z" fill="black"/>
<path d="M33.0057 14.3404C33.141 14.3002 33.0734 14.0914 33.0734 13.9629C33.0734 9.44514 33.0734 4.92737 33.0809 0.409611C33.0809 0.100395 33.017 0 32.7126 0C32.4194 0 32.3405 0.0843316 32.3405 0.401579C32.3518 2.66648 32.348 4.93139 32.348 7.1963C32.348 9.4612 32.348 11.7261 32.348 13.991C32.348 14.1115 32.2879 14.3002 32.4082 14.3364C32.5961 14.3886 32.8178 14.3966 33.002 14.3404H33.0057Z" fill="black"/>
<path d="M12.9661 31.4114C9.5085 31.4275 6.04715 31.4275 2.58955 31.4114C2.2513 31.4114 2.28137 31.5882 2.2701 31.8253C2.25882 32.0906 2.30392 32.1991 2.58955 32.1991C4.30707 32.183 6.0246 32.1911 7.74212 32.1911C9.4822 32.1911 11.226 32.183 12.9661 32.1991C13.2555 32.1991 13.2968 32.0866 13.2856 31.8253C13.2743 31.5802 13.2968 31.4114 12.9623 31.4114H12.9661Z" fill="black"/>
<path d="M60.0086 35.5443C60.2717 35.5443 60.3318 35.4518 60.3093 35.1986C60.2867 34.9736 60.3769 34.7485 59.9936 34.7525C58.2272 34.7766 56.4646 34.7646 54.6982 34.7646C52.9318 34.7646 51.1203 34.7766 49.3314 34.7525C48.9969 34.7485 49.0157 34.9133 49.0119 35.1544C49.0119 35.3915 48.9931 35.5443 49.3088 35.5443C52.8754 35.5322 56.4383 35.5322 60.0048 35.5443H60.0086Z" fill="black"/>
<path d="M29.9431 53.0082C29.9431 52.8837 29.9356 52.7552 29.9318 52.6307C29.3718 52.4098 29.2215 52.5022 29.2215 53.0724C29.2215 57.5541 29.2215 62.0357 29.2215 66.5133C29.2215 66.6418 29.1501 66.7904 29.2816 66.8988H29.3493C29.5146 66.9028 29.6838 66.9028 29.8491 66.9028C30.0182 66.8024 29.9318 66.6338 29.9356 66.5012C29.9393 62.0036 29.9393 57.5059 29.9393 53.0082H29.9431Z" fill="black"/>
<path d="M31.119 41.6357C26.1995 41.5192 22.569 39.2624 19.63 35.6241C17.8035 33.3953 17.8261 33.1825 19.7428 31.1143C22.1706 28.5081 24.8878 26.3958 28.3379 25.5725C31.788 24.7734 34.9524 25.5725 37.914 27.476C40.12 28.8856 41.9879 30.7168 43.6152 32.8291C43.9497 33.2507 44.2391 33.6523 43.7693 34.2627C40.9845 37.901 37.6246 40.6036 33.171 41.4469C32.4156 41.5634 31.6339 41.5875 31.1228 41.6357H31.119ZM30.9837 28.8856C28.601 28.9097 26.688 30.9296 26.688 33.4395C26.688 35.9493 28.6461 38.0175 31.0063 37.9934C33.4341 37.9934 35.4147 35.8811 35.3696 33.3431C35.3471 30.8533 33.389 28.8574 30.9837 28.8815V28.8856ZM38.0643 28.5804C37.9966 28.6285 37.929 28.6727 37.8651 28.7209C39.0677 32.0781 39.2669 35.3911 37.6434 38.6761C39.7818 37.4793 41.4956 35.8128 42.9425 33.8169C43.0327 33.6764 42.9425 33.2306 42.7884 33.066C42.0743 32.2669 41.364 31.4677 40.5823 30.7409C39.8044 29.9658 38.9136 29.2831 38.0643 28.5804ZM23.9708 28.7691C23.9032 28.6968 23.8167 28.6285 23.7491 28.5362C22.5915 29.6164 21.4114 30.6485 20.299 31.7769C18.8746 33.2347 18.8972 33.2788 20.1449 34.853C21.2122 36.2144 22.4149 37.4593 23.952 38.3267C22.2383 35.1582 22.4149 31.9617 23.9746 28.7691H23.9708ZM27.6464 27.1507C27.357 27.5724 27.0451 28.0422 26.7557 28.488C27.3345 29.0823 27.9508 29.0823 28.6047 28.488C28.2928 28.0663 27.9809 27.6447 27.6464 27.1507Z" fill="black"/>
<path d="M31.0966 36.825C29.3603 36.8009 27.8908 35.2508 27.9133 33.4437C27.9359 31.6125 29.4054 30.0624 31.1191 30.0865C32.878 30.1106 34.3024 31.6366 34.3024 33.4678C34.3024 35.299 32.8329 36.849 31.0966 36.825Z" fill="black"/>
</svg>
