<?xml version="1.0" encoding="utf-8"?><svg viewBox="0 0 82 34" xmlns="http://www.w3.org/2000/svg" xmlns:xlink="http://www.w3.org/1999/xlink"><style>:root>svg{display:none}:root>svg:target{display:block}</style><svg fill="none" viewBox="0 0 82 34" id="CNST-logo" xmlns="http://www.w3.org/2000/svg"><path d="M10.68 33.48c-3.52 0-6.027-.92-7.52-2.76-1.467-1.867-2.2-4.547-2.2-8.04V11c0-3.573.733-6.267 2.2-8.08C4.627 1.08 7.133.16 10.68.16c3.387 0 5.787.813 7.2 2.44C19.293 4.227 20 6.533 20 9.52v2.8h-7V9.08c0-1.253-.133-2.213-.4-2.88-.267-.667-.907-1-1.92-1s-1.68.36-2 1.08c-.32.693-.48 1.667-.48 2.92v15.24c0 1.28.16 2.267.48 2.96.347.667 1.013 1 2 1 .987 0 1.613-.333 1.88-1 .293-.693.44-1.68.44-2.96v-3.4h7v2.8c0 3.04-.707 5.413-2.12 7.12-1.413 1.68-3.813 2.52-7.2 2.52zM23.94.6h5.04l6.64 15.6V.6h5.92V33H36.7l-6.64-16.8V33h-6.12V.6zm31.021 32.88c-3.093 0-5.4-.813-6.92-2.44-1.493-1.653-2.293-4.267-2.4-7.84l6.12-.92c.027 2.053.267 3.533.72 4.44.48.88 1.187 1.32 2.12 1.32 1.2 0 1.8-.787 1.8-2.36 0-1.253-.293-2.333-.88-3.24-.56-.907-1.453-1.88-2.68-2.92l-2.8-2.44c-1.387-1.173-2.467-2.413-3.24-3.72-.747-1.333-1.12-2.907-1.12-4.72 0-2.72.8-4.813 2.4-6.28 1.627-1.467 3.853-2.2 6.68-2.2 3.067 0 5.147.893 6.24 2.68 1.12 1.787 1.72 3.96 1.8 6.52l-6.16.76c-.053-1.68-.213-2.88-.48-3.6-.24-.747-.787-1.12-1.64-1.12-.613 0-1.093.267-1.44.8-.32.507-.48 1.08-.48 1.72 0 1.093.24 2.013.72 2.76.507.747 1.307 1.6 2.4 2.56l2.68 2.36c1.6 1.36 2.84 2.8 3.72 4.32.88 1.52 1.32 3.32 1.32 5.4 0 1.52-.36 2.907-1.08 4.16-.693 1.227-1.68 2.2-2.96 2.92-1.28.72-2.76 1.08-4.44 1.08zM69.828 5.92h-4.88V.6h16.92v5.32h-4.84V33h-7.2V5.92z" fill="#fff"/></svg></svg>