<svg width="13" height="17" viewBox="0 0 13 17" fill="none" xmlns="http://www.w3.org/2000/svg">
<path fill-rule="evenodd" clip-rule="evenodd" d="M6.825 0.505371C6.7388 0.505371 6.65614 0.539085 6.59519 0.599097C6.53424 0.659109 6.5 0.740502 6.5 0.825371V11.7054C6.5 12.5886 5.772 13.3054 4.875 13.3054C3.978 13.3054 3.25 12.5886 3.25 11.7054C3.25 10.8222 3.978 10.1054 4.875 10.1054C4.9612 10.1054 5.04386 10.0717 5.10481 10.0116C5.16576 9.95163 5.2 9.87024 5.2 9.78537V7.22537C5.2 7.1405 5.16576 7.05911 5.10481 6.9991C5.04386 6.93908 4.9612 6.90537 4.875 6.90537C2.184 6.90537 0 9.05609 0 11.7054C0 14.355 2.184 16.5054 4.875 16.5054C7.56567 16.5054 9.75 14.355 9.75 11.7054V6.42345C10.4648 6.74198 11.2404 6.9063 12.025 6.90537H12.675C12.7612 6.90537 12.8439 6.87166 12.9048 6.81165C12.9658 6.75163 13 6.67024 13 6.58537V4.02537C13 3.9405 12.9658 3.85911 12.9048 3.7991C12.8439 3.73908 12.7612 3.70537 12.675 3.70537H12.025C10.7695 3.70537 9.75 2.70153 9.75 1.46537V0.825371C9.75 0.740502 9.71576 0.659109 9.65481 0.599097C9.59386 0.539085 9.5112 0.505371 9.425 0.505371H6.825ZM7.15 1.14537H9.1V1.46537C9.1 3.05481 10.4107 4.34537 12.025 4.34537H12.35V6.26537H12.025C11.1374 6.26537 10.3051 6.03177 9.58782 5.62249C9.53841 5.59433 9.48233 5.57948 9.42524 5.57943C9.36814 5.57939 9.31204 5.59416 9.26258 5.62226C9.21313 5.65035 9.17206 5.69078 9.14352 5.73947C9.11498 5.78816 9.09997 5.84339 9.1 5.89961V11.7054C9.1 14.0014 7.20687 15.8654 4.875 15.8654C2.54312 15.8654 0.65 14.0014 0.65 11.7054C0.65 9.51721 2.3699 7.72137 4.55 7.55753V9.48809C3.44825 9.64361 2.6 10.5777 2.6 11.7057C2.6 12.9415 3.61952 13.9457 4.875 13.9457C6.13047 13.9457 7.15 12.9415 7.15 11.7057V1.14537Z" fill="black"/>
</svg>
